# xmcd
#
# Track frame offsets: 
#        151
#        26739
#        48476
#        76028
#        106554
#        131156
#        162169
#        184074
#        216453
#        230631
#        255957
#        278004
#        301216
#
# Disc length: 4325 seconds
#
# Revision: 2
# Processed by: cddbd v1.5.2PL0 Copyright (c) Steve Scherf et al.
# Submitted via: ExactAudioCopy v1.0b6
#
DISCID=a610e30d
DTITLE=James Chirillo - Sultry Serenade
DYEAR=1991
DGENRE=Jazz
TTITLE0=When Lights Are Low
TTITLE1=James Chirillo, voc Vera Mara - I Love You, Samantha
TTITLE2=Sultry Serenade
TTITLE3=James Chirillo, tp John Carisi - Counterpoise #2 For Electric 
TTITLE3=Guitar And Trumpet (1999)
TTITLE4=If I Only Had A Brain
TTITLE5=Move
TTITLE6=Elend
TTITLE7=Can't We Be Friends
TTITLE8=Bourbon Street Parade
TTITLE9=Lush Life
TTITLE10=I'm Always Chasing Rainbows
TTITLE11=Fancifree
TTITLE12=Blues For Valerie
EXTD=YEAR: 2000
EXTT0=
EXTT1=
EXTT2=
EXTT3=
EXTT4=
EXTT5=
EXTT6=
EXTT7=
EXTT8=
EXTT9=
EXTT10=
EXTT11=
EXTT12=
PLAYORDER=
